ffmpeg started on 2026-04-01 at 13:29:07
Report written to "D:\Convert\FFMetrics\reports\psnr_report-6.txt"
Log level: 32
Command line:
ffmpeg -hide_banner -nostdin -r 24000/1001 -i "F:\\Convert\\files\\[DC] Make Heroine ga Oosugiru - 07_Telegram_HEVC(305).mkv" -r 24000/1001 -i "F:\\Convert\\files\\[DC] Make Heroine ga Oosugiru - 07_Telegram.mp4" -lavfi "[0:v]settb=AVTB,setpts=PTS-STARTPTS,format=pix_fmts=yuv420p10le,fps=24000/1001,scale=1920:1080:flags=lanczos:param0=3:out_range=limited:out_color_matrix=bt709:out_chroma_loc=left,setsar=1/1,setdar=(1920/1080)*(1/1),colorspace=format=yuv420p10:range=tv:primaries=bt709:trc=bt709:space=bt709:fast=0[main];[1:v]settb=AVTB,setpts=PTS-STARTPTS,format=pix_fmts=yuv420p,fps=24000/1001,scale=1920:1080:flags=lanczos:param0=3:out_range=limited:out_color_matrix=bt709:out_chroma_loc=left,setsar=1/1,setdar=(1920/1080)*(1/1),colorspace=format=yuv420p:range=tv:primaries=bt709:trc=bt709:space=bt709:fast=0[ref];[main][ref]psnr=eof_action=endall:stats_file='D\\:/Convert/FFMetrics/logs/psnr_logfile-6.txt'" -f null -
Input #0, matroska,webm, from 'F:\Convert\files\[DC] Make Heroine ga Oosugiru - 07_Telegram_HEVC(305).mkv':
  Metadata:
    COMPATIBLE_BRANDS: isomiso2avc1mp41
    MAJOR_BRAND     : isom
    MINOR_VERSION   : 512
    ENCODER         : Lavf61.7.100
  Duration: 00:24:06.79, start: -0.021000, bitrate: 904 kb/s
  Stream #0:0: Video: hevc (Main 10), yuv420p10le(tv, bt709, progressive), 1920x1080 [SAR 1:1 DAR 16:9], 23.98 fps, 23.98 tbr, 1k tbn (default)
      Metadata:
        HANDLER_NAME    : VideoHandler
        VENDOR_ID       : [0][0][0][0]
        ENCODER         : Lavc61.19.100 libx265
        BPS             : 707749
        DURATION        : 00:24:06.569708333
        NUMBER_OF_FRAMES: 34683
        NUMBER_OF_BYTES : 127976096
        _STATISTICS_WRITING_APP: mkvpropedit v94.0 ('Initiate') 64-bit
        _STATISTICS_WRITING_DATE_UTC: 2026-03-31 10:06:38
        _STATISTICS_TAGS: BPS DURATION NUMBER_OF_FRAMES NUMBER_OF_BYTES
  Stream #0:1: Audio: aac (LC), 48000 Hz, stereo, fltp (default)
      Metadata:
        HANDLER_NAME    : SoundHandler
        VENDOR_ID       : [0][0][0][0]
        ENCODER         : Lavc61.19.100 aac
        BPS             : 193194
        DURATION        : 00:24:06.784000000
        NUMBER_OF_FRAMES: 67819
        NUMBER_OF_BYTES : 34938755
        _STATISTICS_WRITING_APP: mkvpropedit v94.0 ('Initiate') 64-bit
        _STATISTICS_WRITING_DATE_UTC: 2026-03-31 10:06:38
        _STATISTICS_TAGS: BPS DURATION NUMBER_OF_FRAMES NUMBER_OF_BYTES
Input #1, mov,mp4,m4a,3gp,3g2,mj2, from 'F:\Convert\files\[DC] Make Heroine ga Oosugiru - 07_Telegram.mp4':
  Metadata:
    major_brand     : isom
    minor_version   : 512
    compatible_brands: isomiso2avc1mp41
    encoder         : Lavf60.16.100
  Duration: 00:24:06.74, start: 0.000000, bitrate: 3764 kb/s
  Stream #1:0[0x1](und): Video: h264 (High) (avc1 / 0x31637661), yuv420p(tv, bt709, progressive), 1920x1080 [SAR 1:1 DAR 16:9], 3616 kb/s, 23.98 fps, 23.98 tbr, 24k tbn (default)
      Metadata:
        handler_name    : VideoHandler
        vendor_id       : [0][0][0][0]
        encoder         : Lavc60.31.102 h264_qsv
  Stream #1:1[0x2](und): Audio: aac (HE-AACv2) (mp4a / 0x6134706D), 48000 Hz, stereo, fltp, 144 kb/s (default)
      Metadata:
        handler_name    : SoundHandler
        vendor_id       : [0][0][0][0]
Stream mapping:
  Stream #0:0 (hevc) -> settb:default
  Stream #1:0 (h264) -> settb:default
  psnr:default -> Stream #0:0 (wrapped_avframe)
  Stream #0:1 -> #0:1 (aac (native) -> pcm_s16le (native))
Output #0, null, to 'pipe:':
  Metadata:
    COMPATIBLE_BRANDS: isomiso2avc1mp41
    MAJOR_BRAND     : isom
    MINOR_VERSION   : 512
    encoder         : Lavf61.7.100
  Stream #0:0: Video: wrapped_avframe, yuv420p10le(tv, bt709, progressive), 1920x1080 [SAR 1:1 DAR 16:9], q=2-31, 200 kb/s, 23.98 fps, 23.98 tbn
      Metadata:
        encoder         : Lavc61.19.100 wrapped_avframe
  Stream #0:1: Audio: pcm_s16le, 48000 Hz, stereo, s16, 1536 kb/s (default)
      Metadata:
        HANDLER_NAME    : SoundHandler
        VENDOR_ID       : [0][0][0][0]
        _STATISTICS_TAGS: BPS DURATION NUMBER_OF_FRAMES NUMBER_OF_BYTES
        BPS             : 193194
        DURATION        : 00:24:06.784000000
        NUMBER_OF_FRAMES: 67819
        NUMBER_OF_BYTES : 34938755
        _STATISTICS_WRITING_APP: mkvpropedit v94.0 ('Initiate') 64-bit
        _STATISTICS_WRITING_DATE_UTC: 2026-03-31 10:06:38
        encoder         : Lavc61.19.100 pcm_s16le
frame=  127 fps=0.0 q=-0.0 size=N/A time=00:00:05.29 bitrate=N/A speed=10.2x    frame=  319 fps=309 q=-0.0 size=N/A time=00:00:13.30 bitrate=N/A speed=12.9x    frame=  520 fps=333 q=-0.0 size=N/A time=00:00:21.68 bitrate=N/A speed=13.9x    frame=  720 fps=348 q=-0.0 size=N/A time=00:00:30.03 bitrate=N/A speed=14.5x    frame=  895 fps=347 q=-0.0 size=N/A time=00:00:37.32 bitrate=N/A speed=14.5x    frame= 1049 fps=338 q=-0.0 size=N/A time=00:00:43.75 bitrate=N/A speed=14.1x    frame= 1210 fps=334 q=-0.0 size=N/A time=00:00:50.46 bitrate=N/A speed=13.9x    frame= 1373 fps=332 q=-0.0 size=N/A time=00:00:57.26 bitrate=N/A speed=13.9x    frame= 1530 fps=329 q=-0.0 size=N/A time=00:01:03.81 bitrate=N/A speed=13.7x    frame= 1672 fps=324 q=-0.0 size=N/A time=00:01:09.73 bitrate=N/A speed=13.5x    frame= 1840 fps=324 q=-0.0 size=N/A time=00:01:16.74 bitrate=N/A speed=13.5x    frame= 2015 fps=325 q=-0.0 size=N/A time=00:01:24.04 bitrate=N/A speed=13.6x    frame= 2126 fps=317 q=-0.0 size=N/A time=00:01:28.67 bitrate=N/A speed=13.2x    frame= 2280 fps=316 q=-0.0 size=N/A time=00:01:35.09 bitrate=N/A speed=13.2x    frame= 2428 fps=314 q=-0.0 size=N/A time=00:01:41.26 bitrate=N/A speed=13.1x    frame= 2563 fps=310 q=-0.0 size=N/A time=00:01:46.89 bitrate=N/A speed=12.9x    frame= 2732 fps=312 q=-0.0 size=N/A time=00:01:53.94 bitrate=N/A speed=  13x    frame= 2914 fps=314 q=-0.0 size=N/A time=00:02:01.53 bitrate=N/A speed=13.1x    frame= 3094 fps=316 q=-0.0 size=N/A time=00:02:09.04 bitrate=N/A speed=13.2x    frame= 3293 fps=319 q=-0.0 size=N/A time=00:02:17.34 bitrate=N/A speed=13.3x    frame= 3487 fps=322 q=-0.0 size=N/A time=00:02:25.43 bitrate=N/A speed=13.4x    frame= 3686 fps=325 q=-0.0 size=N/A time=00:02:33.73 bitrate=N/A speed=13.5x    frame= 3882 fps=327 q=-0.0 size=N/A time=00:02:41.91 bitrate=N/A speed=13.6x    frame= 4071 fps=329 q=-0.0 size=N/A time=00:02:49.79 bitrate=N/A speed=13.7x    frame= 4259 fps=330 q=-0.0 size=N/A time=00:02:57.63 bitrate=N/A speed=13.8x    frame= 4449 fps=332 q=-0.0 size=N/A time=00:03:05.56 bitrate=N/A speed=13.8x    frame= 4631 fps=332 q=-0.0 size=N/A time=00:03:13.15 bitrate=N/A speed=13.9x    frame= 4822 fps=334 q=-0.0 size=N/A time=00:03:21.11 bitrate=N/A speed=13.9x    frame= 5013 fps=335 q=-0.0 size=N/A time=00:03:29.08 bitrate=N/A speed=  14x    frame= 5213 fps=337 q=-0.0 size=N/A time=00:03:37.42 bitrate=N/A speed=14.1x    frame= 5405 fps=338 q=-0.0 size=N/A time=00:03:45.43 bitrate=N/A speed=14.1x    frame= 5606 fps=340 q=-0.0 size=N/A time=00:03:53.81 bitrate=N/A speed=14.2x    frame= 5791 fps=340 q=-0.0 size=N/A time=00:04:01.53 bitrate=N/A speed=14.2x    frame= 5987 fps=342 q=-0.0 size=N/A time=00:04:09.70 bitrate=N/A speed=14.2x    frame= 6184 fps=342 q=-0.0 size=N/A time=00:04:17.92 bitrate=N/A speed=14.3x    frame= 6382 fps=344 q=-0.0 size=N/A time=00:04:26.18 bitrate=N/A speed=14.3x    frame= 6573 fps=344 q=-0.0 size=N/A time=00:04:34.14 bitrate=N/A speed=14.4x    frame= 6773 fps=345 q=-0.0 size=N/A time=00:04:42.49 bitrate=N/A speed=14.4x    frame= 6965 fps=346 q=-0.0 size=N/A time=00:04:50.49 bitrate=N/A speed=14.4x    frame= 7154 fps=347 q=-0.0 size=N/A time=00:04:58.38 bitrate=N/A speed=14.5x    frame= 7352 fps=348 q=-0.0 size=N/A time=00:05:06.63 bitrate=N/A speed=14.5x    frame= 7537 fps=348 q=-0.0 size=N/A time=00:05:14.35 bitrate=N/A speed=14.5x    frame= 7722 fps=348 q=-0.0 size=N/A time=00:05:22.07 bitrate=N/A speed=14.5x    frame= 7910 fps=348 q=-0.0 size=N/A time=00:05:29.91 bitrate=N/A speed=14.5x    frame= 8104 fps=349 q=-0.0 size=N/A time=00:05:38.00 bitrate=N/A speed=14.6x    frame= 8301 fps=350 q=-0.0 size=N/A time=00:05:46.22 bitrate=N/A speed=14.6x    frame= 8481 fps=350 q=-0.0 size=N/A time=00:05:53.72 bitrate=N/A speed=14.6x    frame= 8672 fps=350 q=-0.0 size=N/A time=00:06:01.69 bitrate=N/A speed=14.6x    frame= 8864 fps=351 q=-0.0 size=N/A time=00:06:09.70 bitrate=N/A speed=14.6x    frame= 9045 fps=351 q=-0.0 size=N/A time=00:06:17.25 bitrate=N/A speed=14.6x    frame= 9244 fps=351 q=-0.0 size=N/A time=00:06:25.55 bitrate=N/A speed=14.7x    frame= 9437 fps=352 q=-0.0 size=N/A time=00:06:33.60 bitrate=N/A speed=14.7x    frame= 9628 fps=352 q=-0.0 size=N/A time=00:06:41.56 bitrate=N/A speed=14.7x    frame= 9826 fps=353 q=-0.0 size=N/A time=00:06:49.82 bitrate=N/A speed=14.7x    frame=10010 fps=353 q=-0.0 size=N/A time=00:06:57.50 bitrate=N/A speed=14.7x    frame=10205 fps=353 q=-0.0 size=N/A time=00:07:05.63 bitrate=N/A speed=14.7x    frame=10396 fps=354 q=-0.0 size=N/A time=00:07:13.59 bitrate=N/A speed=14.7x    frame=10577 fps=354 q=-0.0 size=N/A time=00:07:21.14 bitrate=N/A speed=14.7x    frame=10780 fps=354 q=-0.0 size=N/A time=00:07:29.61 bitrate=N/A speed=14.8x    frame=10969 fps=354 q=-0.0 size=N/A time=00:07:37.49 bitrate=N/A speed=14.8x    frame=11155 fps=355 q=-0.0 size=N/A time=00:07:45.25 bitrate=N/A speed=14.8x    frame=11339 fps=355 q=-0.0 size=N/A time=00:07:52.93 bitrate=N/A speed=14.8x    frame=11535 fps=355 q=-0.0 size=N/A time=00:08:01.10 bitrate=N/A speed=14.8x    frame=11714 fps=355 q=-0.0 size=N/A time=00:08:08.57 bitrate=N/A speed=14.8x    frame=11905 fps=355 q=-0.0 size=N/A time=00:08:16.53 bitrate=N/A speed=14.8x    frame=12084 fps=355 q=-0.0 size=N/A time=00:08:24.00 bitrate=N/A speed=14.8x    frame=12272 fps=355 q=-0.0 size=N/A time=00:08:31.84 bitrate=N/A speed=14.8x    frame=12466 fps=355 q=-0.0 size=N/A time=00:08:39.93 bitrate=N/A speed=14.8x    frame=12645 fps=355 q=-0.0 size=N/A time=00:08:47.40 bitrate=N/A speed=14.8x    frame=12845 fps=356 q=-0.0 size=N/A time=00:08:55.74 bitrate=N/A speed=14.8x    frame=13028 fps=356 q=-0.0 size=N/A time=00:09:03.37 bitrate=N/A speed=14.8x    frame=13215 fps=356 q=-0.0 size=N/A time=00:09:11.17 bitrate=N/A speed=14.8x    frame=13399 fps=356 q=-0.0 size=N/A time=00:09:18.84 bitrate=N/A speed=14.8x    frame=13589 fps=356 q=-0.0 size=N/A time=00:09:26.77 bitrate=N/A speed=14.9x    frame=13783 fps=356 q=-0.0 size=N/A time=00:09:34.86 bitrate=N/A speed=14.9x    frame=13980 fps=357 q=-0.0 size=N/A time=00:09:43.08 bitrate=N/A speed=14.9x    frame=14159 fps=356 q=-0.0 size=N/A time=00:09:50.54 bitrate=N/A speed=14.9x    frame=14353 fps=357 q=-0.0 size=N/A time=00:09:58.63 bitrate=N/A speed=14.9x    frame=14529 fps=356 q=-0.0 size=N/A time=00:10:05.98 bitrate=N/A speed=14.9x    frame=14720 fps=357 q=-0.0 size=N/A time=00:10:13.94 bitrate=N/A speed=14.9x    frame=14903 fps=357 q=-0.0 size=N/A time=00:10:21.57 bitrate=N/A speed=14.9x    frame=15084 fps=357 q=-0.0 size=N/A time=00:10:29.12 bitrate=N/A speed=14.9x    frame=15251 fps=356 q=-0.0 size=N/A time=00:10:36.09 bitrate=N/A speed=14.9x    frame=15445 fps=356 q=-0.0 size=N/A time=00:10:44.18 bitrate=N/A speed=14.9x    frame=15629 fps=356 q=-0.0 size=N/A time=00:10:51.85 bitrate=N/A speed=14.9x    frame=15824 fps=357 q=-0.0 size=N/A time=00:10:59.99 bitrate=N/A speed=14.9x    frame=16015 fps=357 q=-0.0 size=N/A time=00:11:07.95 bitrate=N/A speed=14.9x    frame=16209 fps=357 q=-0.0 size=N/A time=00:11:16.05 bitrate=N/A speed=14.9x    frame=16399 fps=357 q=-0.0 size=N/A time=00:11:23.97 bitrate=N/A speed=14.9x    frame=16587 fps=357 q=-0.0 size=N/A time=00:11:31.81 bitrate=N/A speed=14.9x    frame=16783 fps=357 q=-0.0 size=N/A time=00:11:39.99 bitrate=N/A speed=14.9x    frame=16973 fps=358 q=-0.0 size=N/A time=00:11:47.91 bitrate=N/A speed=14.9x    frame=17163 fps=358 q=-0.0 size=N/A time=00:11:55.84 bitrate=N/A speed=14.9x    frame=17349 fps=358 q=-0.0 size=N/A time=00:12:03.59 bitrate=N/A speed=14.9x    frame=17539 fps=358 q=-0.0 size=N/A time=00:12:11.52 bitrate=N/A speed=14.9x    frame=17717 fps=358 q=-0.0 size=N/A time=00:12:18.94 bitrate=N/A speed=14.9x    frame=17894 fps=358 q=-0.0 size=N/A time=00:12:26.32 bitrate=N/A speed=14.9x    frame=18078 fps=358 q=-0.0 size=N/A time=00:12:34.00 bitrate=N/A speed=14.9x    frame=18267 fps=358 q=-0.0 size=N/A time=00:12:41.88 bitrate=N/A speed=14.9x    frame=18450 fps=358 q=-0.0 size=N/A time=00:12:49.51 bitrate=N/A speed=14.9x    frame=18633 fps=358 q=-0.0 size=N/A time=00:12:57.15 bitrate=N/A speed=14.9x    frame=18832 fps=358 q=-0.0 size=N/A time=00:13:05.45 bitrate=N/A speed=14.9x    frame=19015 fps=358 q=-0.0 size=N/A time=00:13:13.08 bitrate=N/A speed=14.9x    frame=19212 fps=358 q=-0.0 size=N/A time=00:13:21.30 bitrate=N/A speed=14.9x    frame=19398 fps=358 q=-0.0 size=N/A time=00:13:29.05 bitrate=N/A speed=14.9x    frame=19595 fps=358 q=-0.0 size=N/A time=00:13:37.27 bitrate=N/A speed=14.9x    frame=19779 fps=358 q=-0.0 size=N/A time=00:13:44.94 bitrate=N/A speed=14.9x    frame=19974 fps=359 q=-0.0 size=N/A time=00:13:53.08 bitrate=N/A speed=  15x    frame=20160 fps=359 q=-0.0 size=N/A time=00:14:00.84 bitrate=N/A speed=  15x    frame=20360 fps=359 q=-0.0 size=N/A time=00:14:09.18 bitrate=N/A speed=  15x    frame=20537 fps=359 q=-0.0 size=N/A time=00:14:16.56 bitrate=N/A speed=  15x    frame=20725 fps=359 q=-0.0 size=N/A time=00:14:24.40 bitrate=N/A speed=  15x    frame=20919 fps=359 q=-0.0 size=N/A time=00:14:32.49 bitrate=N/A speed=  15x    frame=21112 fps=359 q=-0.0 size=N/A time=00:14:40.54 bitrate=N/A speed=  15x    frame=21301 fps=359 q=-0.0 size=N/A time=00:14:48.42 bitrate=N/A speed=  15x    frame=21499 fps=359 q=-0.0 size=N/A time=00:14:56.68 bitrate=N/A speed=  15x    frame=21697 fps=360 q=-0.0 size=N/A time=00:15:04.94 bitrate=N/A speed=  15x    frame=21889 fps=360 q=-0.0 size=N/A time=00:15:12.95 bitrate=N/A speed=  15x    frame=22079 fps=360 q=-0.0 size=N/A time=00:15:20.87 bitrate=N/A speed=  15x    frame=22273 fps=360 q=-0.0 size=N/A time=00:15:28.96 bitrate=N/A speed=  15x    frame=22467 fps=360 q=-0.0 size=N/A time=00:15:37.06 bitrate=N/A speed=  15x    frame=22662 fps=360 q=-0.0 size=N/A time=00:15:45.19 bitrate=N/A speed=  15x    frame=22851 fps=360 q=-0.0 size=N/A time=00:15:53.07 bitrate=N/A speed=  15x    frame=23047 fps=360 q=-0.0 size=N/A time=00:16:01.25 bitrate=N/A speed=  15x    frame=23235 fps=360 q=-0.0 size=N/A time=00:16:09.09 bitrate=N/A speed=  15x    frame=23427 fps=360 q=-0.0 size=N/A time=00:16:17.10 bitrate=N/A speed=  15x    frame=23627 fps=361 q=-0.0 size=N/A time=00:16:25.44 bitrate=N/A speed=  15x    frame=23810 fps=361 q=-0.0 size=N/A time=00:16:33.07 bitrate=N/A speed=  15x    frame=23999 fps=361 q=-0.0 size=N/A time=00:16:40.95 bitrate=N/A speed=  15x    frame=24185 fps=361 q=-0.0 size=N/A time=00:16:48.71 bitrate=N/A speed=  15x    frame=24382 fps=361 q=-0.0 size=N/A time=00:16:56.93 bitrate=N/A speed=  15x    frame=24571 fps=361 q=-0.0 size=N/A time=00:17:04.81 bitrate=N/A speed=15.1x    frame=24767 fps=361 q=-0.0 size=N/A time=00:17:12.99 bitrate=N/A speed=15.1x    frame=24960 fps=361 q=-0.0 size=N/A time=00:17:21.04 bitrate=N/A speed=15.1x    frame=25144 fps=361 q=-0.0 size=N/A time=00:17:28.71 bitrate=N/A speed=15.1x    frame=25337 fps=361 q=-0.0 size=N/A time=00:17:36.76 bitrate=N/A speed=15.1x    frame=25526 fps=361 q=-0.0 size=N/A time=00:17:44.64 bitrate=N/A speed=15.1x    frame=25722 fps=361 q=-0.0 size=N/A time=00:17:52.82 bitrate=N/A speed=15.1x    frame=25908 fps=361 q=-0.0 size=N/A time=00:18:00.57 bitrate=N/A speed=15.1x    frame=26111 fps=362 q=-0.0 size=N/A time=00:18:09.04 bitrate=N/A speed=15.1x    frame=26302 fps=362 q=-0.0 size=N/A time=00:18:17.01 bitrate=N/A speed=15.1x    frame=26491 fps=362 q=-0.0 size=N/A time=00:18:24.89 bitrate=N/A speed=15.1x    frame=26687 fps=362 q=-0.0 size=N/A time=00:18:33.07 bitrate=N/A speed=15.1x    frame=26880 fps=362 q=-0.0 size=N/A time=00:18:41.12 bitrate=N/A speed=15.1x    frame=27058 fps=362 q=-0.0 size=N/A time=00:18:48.54 bitrate=N/A speed=15.1x    frame=27242 fps=362 q=-0.0 size=N/A time=00:18:56.21 bitrate=N/A speed=15.1x    frame=27435 fps=362 q=-0.0 size=N/A time=00:19:04.26 bitrate=N/A speed=15.1x    frame=27627 fps=362 q=-0.0 size=N/A time=00:19:12.27 bitrate=N/A speed=15.1x    frame=27812 fps=362 q=-0.0 size=N/A time=00:19:19.99 bitrate=N/A speed=15.1x    frame=28003 fps=362 q=-0.0 size=N/A time=00:19:27.95 bitrate=N/A speed=15.1x    frame=28188 fps=362 q=-0.0 size=N/A time=00:19:35.67 bitrate=N/A speed=15.1x    frame=28382 fps=362 q=-0.0 size=N/A time=00:19:43.76 bitrate=N/A speed=15.1x    frame=28580 fps=362 q=-0.0 size=N/A time=00:19:52.02 bitrate=N/A speed=15.1x    frame=28764 fps=362 q=-0.0 size=N/A time=00:19:59.69 bitrate=N/A speed=15.1x    frame=28939 fps=362 q=-0.0 size=N/A time=00:20:06.99 bitrate=N/A speed=15.1x    frame=29118 fps=362 q=-0.0 size=N/A time=00:20:14.46 bitrate=N/A speed=15.1x    frame=29299 fps=362 q=-0.0 size=N/A time=00:20:22.01 bitrate=N/A speed=15.1x    frame=29469 fps=362 q=-0.0 size=N/A time=00:20:29.10 bitrate=N/A speed=15.1x    frame=29645 fps=361 q=-0.0 size=N/A time=00:20:36.44 bitrate=N/A speed=15.1x    frame=29831 fps=361 q=-0.0 size=N/A time=00:20:44.20 bitrate=N/A speed=15.1x    frame=29996 fps=361 q=-0.0 size=N/A time=00:20:51.08 bitrate=N/A speed=15.1x    frame=30179 fps=361 q=-0.0 size=N/A time=00:20:58.71 bitrate=N/A speed=15.1x    frame=30365 fps=361 q=-0.0 size=N/A time=00:21:06.47 bitrate=N/A speed=15.1x    frame=30560 fps=361 q=-0.0 size=N/A time=00:21:14.60 bitrate=N/A speed=15.1x    frame=30738 fps=361 q=-0.0 size=N/A time=00:21:22.03 bitrate=N/A speed=15.1x    frame=30933 fps=361 q=-0.0 size=N/A time=00:21:30.16 bitrate=N/A speed=15.1x    frame=31120 fps=361 q=-0.0 size=N/A time=00:21:37.96 bitrate=N/A speed=15.1x    frame=31316 fps=361 q=-0.0 size=N/A time=00:21:46.13 bitrate=N/A speed=15.1x    frame=31504 fps=361 q=-0.0 size=N/A time=00:21:53.97 bitrate=N/A speed=15.1x    frame=31693 fps=361 q=-0.0 size=N/A time=00:22:01.86 bitrate=N/A speed=15.1x    frame=31873 fps=361 q=-0.0 size=N/A time=00:22:09.36 bitrate=N/A speed=15.1x    frame=32054 fps=361 q=-0.0 size=N/A time=00:22:16.91 bitrate=N/A speed=15.1x    frame=32246 fps=361 q=-0.0 size=N/A time=00:22:24.92 bitrate=N/A speed=15.1x    frame=32429 fps=361 q=-0.0 size=N/A time=00:22:32.55 bitrate=N/A speed=15.1x    frame=32615 fps=361 q=-0.0 size=N/A time=00:22:40.31 bitrate=N/A speed=15.1x    frame=32766 fps=361 q=-0.0 size=N/A time=00:22:46.61 bitrate=N/A speed=15.1x    frame=32929 fps=361 q=-0.0 size=N/A time=00:22:53.41 bitrate=N/A speed=  15x    frame=33109 fps=361 q=-0.0 size=N/A time=00:23:00.92 bitrate=N/A speed=  15x    frame=33276 fps=360 q=-0.0 size=N/A time=00:23:07.88 bitrate=N/A speed=  15x    frame=33457 fps=360 q=-0.0 size=N/A time=00:23:15.43 bitrate=N/A speed=  15x    frame=33602 fps=360 q=-0.0 size=N/A time=00:23:21.48 bitrate=N/A speed=  15x    frame=33747 fps=359 q=-0.0 size=N/A time=00:23:27.53 bitrate=N/A speed=  15x    frame=33874 fps=359 q=-0.0 size=N/A time=00:23:32.82 bitrate=N/A speed=  15x    frame=34038 fps=359 q=-0.0 size=N/A time=00:23:39.66 bitrate=N/A speed=  15x    frame=34196 fps=358 q=-0.0 size=N/A time=00:23:46.25 bitrate=N/A speed=14.9x    frame=34341 fps=358 q=-0.0 size=N/A time=00:23:52.30 bitrate=N/A speed=14.9x    frame=34479 fps=357 q=-0.0 size=N/A time=00:23:58.06 bitrate=N/A speed=14.9x    frame=34666 fps=357 q=-0.0 size=N/A time=00:24:05.86 bitrate=N/A speed=14.9x    [Parsed_psnr_16 @ 000002885160c000] PSNR y:48.720490 u:50.343935 v:50.392004 average:49.203361 min:37.704752 max:inf
[out#0/null @ 000002884a86dec0] video:14903KiB audio:271276KiB subtitle:0KiB other streams:0KiB global headers:0KiB muxing overhead: unknown
frame=34683 fps=357 q=-0.0 Lsize=N/A time=00:24:06.57 bitrate=N/A speed=14.9x    
